<svg width="90" height="79" viewBox="0 0 90 79" fill="none" xmlns="http://www.w3.org/2000/svg">
<path d="M81.0703 17H14.0625C12.5086 17 11.25 15.7414 11.25 14.1875C11.25 12.6336 12.5086 11.375 14.0625 11.375H81.5625C83.1164 11.375 84.375 10.1164 84.375 8.5625C84.375 3.90254 80.5975 0.125 75.9375 0.125H11.25C5.03613 0.125 0 5.16113 0 11.375V67.625C0 73.8389 5.03613 78.875 11.25 78.875H81.0703C85.9957 78.875 90 75.0904 90 70.4375V25.4375C90 20.7846 85.9957 17 81.0703 17ZM73.125 53.5625C70.0189 53.5625 67.5 51.0436 67.5 47.9375C67.5 44.8314 70.0189 42.3125 73.125 42.3125C76.2311 42.3125 78.75 44.8314 78.75 47.9375C78.75 51.0436 76.2311 53.5625 73.125 53.5625Z" fill="white"/>
</svg>
